<svg width="880" height="240" viewBox="0 0 880 240" fill="none" xmlns="http://www.w3.org/2000/svg">
<path fill-rule="evenodd" clip-rule="evenodd" d="M204 36H138V0H204H240V36V204V240H204H138V204H204V36ZM102 0V36H36V204H102V240H36H0V204V36V0H36H102ZM138 80H102V160H138V80Z" fill="black"/>
<path fill-rule="evenodd" clip-rule="evenodd" d="M335.543 188.946V76.4814H311.393V188.946H335.543ZM310 53.4772C310 60.9129 316.037 66.9544 323.468 66.9544C330.898 66.9544 336.936 60.9129 336.936 53.4772C336.936 46.0415 330.898 40 323.468 40C316.037 40 310 46.0415 310 53.4772ZM366.713 188.946H390.862V125.975C390.862 107.618 402.937 97.6266 418.494 97.6266C434.517 97.6266 445.198 105.992 445.198 126.44V188.946H469.347V121.096C469.347 93.2117 449.378 73.4606 425.693 73.4606C410.367 73.4606 398.06 80.1992 391.326 90.6557H390.862V76.4814H366.713V188.946ZM539.989 191.967C520.948 191.967 504.693 185.228 489.368 172.216L505.854 155.486C514.446 164.78 528.611 171.984 541.15 171.984C555.082 171.984 563.441 164.083 563.441 157.809C563.441 150.374 557.636 146.423 548.812 144.797L535.112 142.241C503.532 136.432 494.709 126.208 494.709 110.174C494.709 91.1204 510.731 73.4606 538.828 73.4606C554.385 73.4606 568.085 78.1079 583.411 89.0291L569.711 105.992C557.868 96.0001 547.419 93.4441 539.524 93.4441C529.075 93.4441 518.858 98.5561 518.858 107.618C518.858 114.357 524.199 117.842 533.487 119.469L557.868 124.116C577.838 127.834 587.591 137.361 587.591 154.091C587.591 170.589 574.123 191.967 539.989 191.967ZM698.248 150.834C698.248 186.741 723.094 204.818 750.154 204.818C777.214 204.818 802.06 186.741 802.06 150.834V96.8508C802.06 60.9443 777.214 42.8673 750.154 42.8673C723.094 42.8673 698.248 60.9443 698.248 96.8508V150.834ZM726.784 95.1174C726.784 77.7832 738.346 70.1067 750.154 70.1067C761.962 70.1067 773.524 77.7832 773.524 95.1174V152.568C773.524 169.902 761.962 177.578 750.154 177.578C738.346 177.578 726.784 169.902 726.784 152.568V95.1174ZM621.102 205.3H674.73V181.032H648.162V67.5652H674.73V43.2974H621.102V205.3ZM825.531 181.032H852.099V67.5652H825.531V43.2974H879.16V205.3H825.531V181.032Z" fill="black"/>
</svg>
