<svg width="492" height="180" viewBox="0 0 492 180" fill="none" xmlns="http://www.w3.org/2000/svg">
<path fill-rule="evenodd" clip-rule="evenodd" d="M465 27H415.5V0H465H492V27V153V180H465H415.5V153H465V27ZM388.5 0V27H339V153H388.5V180H339H312V153V27V0H339H388.5ZM415.5 60H388.5V120H415.5V60Z" fill="black"/>
<path d="M1.39323 157.946H25.5426V45.4814H1.39323V157.946ZM0 22.4772C0 29.9129 6.03734 35.9544 13.4679 35.9544C20.8985 35.9544 26.9358 29.9129 26.9358 22.4772C26.9358 15.0415 20.8985 9 13.4679 9C6.03734 9 0 15.0415 0 22.4772Z" fill="black"/>
<path d="M56.7126 157.946H80.8619V94.9752C80.8619 76.6184 92.9366 66.6266 108.494 66.6266C124.517 66.6266 135.198 74.9918 135.198 95.44V157.946H159.347V90.0956C159.347 62.2117 139.378 42.4606 115.693 42.4606C100.367 42.4606 88.0603 49.1992 81.3263 59.6557H80.8619V45.4814H56.7126V157.946Z" fill="black"/>
<path d="M179.368 141.216C194.693 154.228 210.948 160.967 229.989 160.967C264.123 160.967 277.591 139.589 277.591 123.091C277.591 106.361 267.838 96.8342 247.868 93.1163L223.487 88.469C214.199 86.8424 208.858 83.357 208.858 76.6184C208.858 67.5561 219.075 62.4441 229.524 62.4441C237.419 62.4441 247.868 65.0001 259.711 74.9918L273.411 58.0291C258.085 47.1079 244.385 42.4606 228.828 42.4606C200.731 42.4606 184.709 60.1204 184.709 79.1744C184.709 95.2076 193.532 105.432 225.112 111.241L238.812 113.797C247.636 115.423 253.441 119.374 253.441 126.809C253.441 133.083 245.082 140.984 231.15 140.984C218.611 140.984 204.446 133.78 195.854 124.486L179.368 141.216Z" fill="black"/>
</svg>
