<svg width="36" height="50" viewBox="0 0 36 50" fill="none" xmlns="http://www.w3.org/2000/svg">
<path d="M35.1682 17.5841C35.1682 27.2956 24.9236 40.2906 17.5841 44.6484C10.0918 40.4435 0 27.2956 0 17.5841C0 7.87268 7.87268 0 17.5841 0C27.2956 0 35.1682 7.87268 35.1682 17.5841Z" fill="black"/>
<ellipse cx="17.5075" cy="45.4892" rx="16.7431" ry="4.51071" fill="black" fill-opacity="0.05"/>
<ellipse cx="17.5077" cy="44.5716" rx="8.33334" ry="2.21713" fill="black" fill-opacity="0.2"/>
<path fill-rule="evenodd" clip-rule="evenodd" d="M27 14.4425C27 9.52907 20.998 7.76377 20.998 9.88214C20.998 10.3289 21.3902 10.5449 21.8911 10.8207C22.7756 11.3079 23.999 11.9817 23.999 14.4425V21.1801C23.999 23.6516 22.765 24.3326 21.8796 24.8212C21.3842 25.0946 20.998 25.3077 20.998 25.7405C20.998 27.8588 27 26.0935 27 21.1801V14.4425ZM15.0252 25.7414C15.0252 25.2946 14.633 25.0786 14.1321 24.8028C13.2476 24.3156 12.0242 23.6419 12.0242 21.181V14.4434C12.0242 11.9719 13.2583 11.2909 14.1437 10.8023C14.639 10.5289 15.0252 10.3158 15.0252 9.88305C15.0252 7.76468 9.02319 9.52999 9.02319 14.4434V21.181C9.02319 26.0944 15.0252 27.8597 15.0252 25.7414ZM20.4977 18.532V17.0609C20.4977 14.5601 15.496 14.5601 15.496 17.0609V18.532C15.496 21.0329 20.4977 21.0329 20.4977 18.532Z" fill="white"/>
</svg>
