<svg width="36" height="50" viewBox="0 0 36 50" fill="none" xmlns="http://www.w3.org/2000/svg">
<path d="M35.1682 17.5841C35.1682 27.2956 24.9236 40.2906 17.5841 44.6484C10.0918 40.4435 0 27.2956 0 17.5841C0 7.87268 7.87268 0 17.5841 0C27.2956 0 35.1682 7.87268 35.1682 17.5841Z" fill="black"/>
<ellipse cx="17.5075" cy="45.4892" rx="16.7431" ry="4.51071" fill="black" fill-opacity="0.05"/>
<ellipse cx="17.5077" cy="44.5716" rx="8.33334" ry="2.21713" fill="black" fill-opacity="0.2"/>
<path fill-rule="evenodd" clip-rule="evenodd" d="M23.3641 12.416H18.8228V9.93896H23.3641H25.8412V12.416V23.9757V26.4527H23.3641H18.8228V23.9757H23.3641V12.416ZM16.3457 9.93896V12.416H11.8045V23.9757H16.3457V26.4527H11.8045H9.32739V23.9757V12.416V9.93896H11.8045H16.3457ZM18.8228 15.4436H16.3457V20.9482H18.8228V15.4436Z" fill="white"/>
</svg>
